<svg xmlns="http://www.w3.org/2000/svg" viewBox="0 0 860 352" font-family="ui-monospace,'Geist Mono','JetBrains Mono',Menlo,monospace" role="img" aria-label="where unconfirmed name-matched edges point"><rect width="860" height="352" fill="#0a0a0a"/><text x="24" y="30" fill="#747474" font-size="11" letter-spacing="2">WHERE UNCONFIRMED NAME-MATCHED EDGES POINT</text><text x="318" y="77.0" fill="#dadada" font-size="12.5" text-anchor="end">`extend`</text><rect x="330" y="56" width="434" height="34" fill="#121212" stroke="#2e2e2e"/><rect x="330" y="56" width="434.0" height="34" fill="#747474"/><text x="774.0" y="77.0" fill="#ffffff" font-size="13" font-weight="bold"></text><text x="338" y="77.0" fill="#0a0a0a" font-size="11">139 edges</text><text x="318" y="127.0" fill="#dadada" font-size="12.5" text-anchor="end">`lower`</text><rect x="330" y="106" width="434" height="34" fill="#121212" stroke="#2e2e2e"/><rect x="330" y="106" width="390.28776978417267" height="34" fill="#747474"/><text x="730.2877697841727" y="127.0" fill="#ffffff" font-size="13" font-weight="bold"></text><text x="338" y="127.0" fill="#0a0a0a" font-size="11">125 edges</text><text x="318" y="177.0" fill="#dadada" font-size="12.5" text-anchor="end">`cursor`</text><rect x="330" y="156" width="434" height="34" fill="#121212" stroke="#2e2e2e"/><rect x="330" y="156" width="168.6043165467626" height="34" fill="#ff571a"/><text x="508.60431654676256" y="177.0" fill="#ffffff" font-size="13" font-weight="bold"></text><text x="338" y="177.0" fill="#0a0a0a" font-size="11">54 edges  ← arm A was RIGHT here</text><text x="318" y="227.0" fill="#dadada" font-size="12.5" text-anchor="end">`import_module`</text><rect x="330" y="206" width="434" height="34" fill="#121212" stroke="#2e2e2e"/><rect x="330" y="206" width="103.03597122302158" height="34" fill="#747474"/><text x="443.0359712230216" y="227.0" fill="#ffffff" font-size="13" font-weight="bold"></text><text x="503.0359712230216" y="227.0" fill="#747474" font-size="11">33 edges</text><text x="318" y="277.0" fill="#dadada" font-size="12.5" text-anchor="end">`search`</text><rect x="330" y="256" width="434" height="34" fill="#121212" stroke="#2e2e2e"/><rect x="330" y="256" width="96.79136690647482" height="34" fill="#747474"/><text x="436.7913669064748" y="277.0" fill="#ffffff" font-size="13" font-weight="bold"></text><text x="496.7913669064748" y="277.0" fill="#747474" font-size="11">31 edges</text><text x="24" y="336" fill="#747474" font-size="11">container-method name collisions dominate the top; the cursor block is the honest counter-example (pyright under-reported). source: docs/graph-delta.md</text></svg>